<svg width="48" height="48" viewBox="0 0 48 48" fill="none" xmlns="http://www.w3.org/2000/svg">
<path d="M33.183 15.06C33.192 15.06 33.204 15.06 33.216 15.06C33.5295 15.06 33.8205 15.1575 34.059 15.3255L34.0545 15.3225C34.2285 15.474 34.3455 15.687 34.374 15.927V15.9315C34.404 16.1145 34.4205 16.3245 34.4205 16.539C34.4205 16.6365 34.4175 16.7325 34.41 16.8285V16.815C34.0725 20.3685 32.6085 28.986 31.8645 32.964C31.5495 34.6485 30.93 35.2125 30.33 35.2665C29.0265 35.388 28.0365 34.4055 26.7735 33.5775C24.7965 32.28 23.679 31.473 21.7605 30.2085C19.542 28.749 20.9805 27.9435 22.2435 26.6325C22.575 26.2875 28.3215 21.06 28.434 20.586C28.44 20.5575 28.443 20.526 28.443 20.493C28.443 20.376 28.3995 20.2695 28.329 20.1885C28.251 20.1375 28.1535 20.109 28.0515 20.109C27.984 20.109 27.9195 20.1225 27.8595 20.145L27.8625 20.1435C27.6645 20.1885 24.5065 22.2755 18.3885 26.4045C17.721 26.931 16.878 27.264 15.96 27.303H15.951C14.6505 27.1455 13.47 26.856 12.3495 26.4435L12.4605 26.4795C11.0535 26.0205 9.93601 25.779 10.032 25.002C10.083 24.598 10.64 24.1845 11.703 23.7615C18.251 20.9085 22.6175 19.028 24.8025 18.12C27.213 16.8405 30.0075 15.7875 32.946 15.105L33.1815 15.0585L33.183 15.06ZM23.895 1.53748C11.442 1.56748 1.35751 11.67 1.35751 24.1275C1.35751 36.603 11.4705 46.7175 23.9475 46.7175C36.4245 46.7175 46.5375 36.6045 46.5375 24.1275C46.5375 11.67 36.453 1.56748 24.003 1.53748H24C23.965 1.53748 23.93 1.53748 23.895 1.53748Z" fill="black"/>
</svg>
