<svg width="48" height="48" viewBox="0 0 48 48" fill="none" xmlns="http://www.w3.org/2000/svg">
<path d="M37.8255 33.603H34.557C33.3195 33.603 32.937 32.619 30.714 30.366C28.7775 28.491 27.921 28.239 27.4455 28.239C26.778 28.239 26.5875 28.4295 26.5875 29.3505V32.3025C26.5875 33.0975 26.334 33.573 24.2385 33.573C20.0115 33.2895 16.3785 30.984 14.2695 27.624L14.238 27.5715C11.79 24.531 9.98551 20.8665 9.09301 16.8585L9.06001 16.683C9.06001 16.2075 9.25051 15.762 10.1715 15.762H13.44C14.265 15.762 14.583 16.143 14.9025 17.031C16.5195 21.699 19.2195 25.794 20.331 25.794C20.7435 25.794 20.934 25.6035 20.934 24.5565V19.728C20.8065 17.505 19.632 17.316 19.632 16.5225C19.6455 16.098 19.9935 15.759 20.4195 15.759C20.433 15.759 20.445 15.759 20.4585 15.7605H20.457H25.6005C26.2995 15.7605 26.553 16.1415 26.553 16.9665V23.4765C26.553 24.174 26.871 24.429 27.0615 24.429C27.474 24.429 27.825 24.174 28.5855 23.4135C30.1665 21.483 31.518 19.275 32.5485 16.8945L32.6175 16.7145C32.835 16.17 33.357 15.792 33.9675 15.792C33.996 15.792 34.023 15.7935 34.0515 15.795H34.047H37.3155C38.2995 15.795 38.523 16.3005 38.2995 17.001C36.9885 19.8885 35.5155 22.3695 33.8085 24.6675L33.8865 24.5565C33.5385 25.128 33.411 25.3815 33.8865 26.019C34.2345 26.4945 35.379 27.4785 36.141 28.368C37.2435 29.4585 38.1675 30.7275 38.865 32.1285L38.9025 32.211C39.2205 33.129 38.7435 33.606 37.8225 33.606L37.8255 33.603ZM30.906 1.50598H17.0955C4.49101 1.50598 1.50751 4.48948 1.50751 17.094V30.9045C1.50751 43.509 4.49101 46.4925 17.0955 46.4925H30.906C43.5105 46.4925 46.494 43.509 46.494 30.9045V17.094C46.494 4.48948 43.4775 1.50598 30.906 1.50598Z" fill="black"/>
</svg>
