<svg width="220" height="78" viewBox="0 0 220 78" fill="none" xmlns="http://www.w3.org/2000/svg">
<g clip-path="url(#clip0_3_875)">
<path fill-rule="evenodd" clip-rule="evenodd" d="M29.0227 8.08621C13.448 8.08621 0.833218 20.701 0.833218 36.2757C0.833218 48.7496 8.90246 59.2854 20.1078 63.0205C21.5173 63.2672 22.0458 62.4215 22.0458 61.6815C22.0458 61.012 22.0106 58.7921 22.0106 56.4312C14.928 57.735 13.0957 54.7046 12.5319 53.1189C12.2147 52.3085 10.8405 49.8067 9.64244 49.1372C8.6558 48.6086 7.24633 47.3049 9.6072 47.2696C11.8271 47.2344 13.4128 49.3134 13.9413 50.159C16.4784 54.4227 20.5306 53.2247 22.1515 52.4847C22.3982 50.6524 23.1382 49.4191 23.9486 48.7143C17.6764 48.0096 11.1224 45.5783 11.1224 34.7958C11.1224 31.7302 12.2147 29.1931 14.0118 27.2198C13.7299 26.5151 12.7433 23.6257 14.2937 19.7496C14.2937 19.7496 16.6546 19.0096 22.0458 22.639C24.301 22.0048 26.6971 21.6876 29.0932 21.6876C31.4893 21.6876 33.8854 22.0048 36.1406 22.639C41.5318 18.9744 43.8927 19.7496 43.8927 19.7496C45.4431 23.6257 44.4565 26.5151 44.1746 27.2198C45.9717 29.1931 47.064 31.6949 47.064 34.7958C47.064 45.6135 40.4747 48.0096 34.2025 48.7143C35.2244 49.5953 36.1053 51.2866 36.1053 53.9294C36.1053 57.6997 36.0701 60.7301 36.0701 61.6815C36.0701 62.4215 36.5986 63.3024 38.0081 63.0205C43.6043 61.1313 48.467 57.5348 51.912 52.7371C55.357 47.9394 57.2107 42.1821 57.2122 36.2757C57.2122 20.701 44.5974 8.08621 29.0227 8.08621Z" fill="#1E1E1E"/>
<path d="M132.248 49.8821H132.182C132.212 49.8821 132.232 49.915 132.261 49.9183H132.281L132.248 49.8854V49.8821ZM132.261 49.9183C131.955 49.9215 131.186 50.0827 130.373 50.0827C127.808 50.0827 126.92 48.8987 126.92 47.353V37.0559H132.149C132.445 37.0559 132.676 36.7928 132.676 36.431V30.8401C132.676 30.5441 132.412 30.281 132.149 30.281H126.92V23.3417C126.92 23.0786 126.756 22.9141 126.46 22.9141H119.356C119.06 22.9141 118.896 23.0786 118.896 23.3417V30.4783C118.896 30.4783 115.311 31.3663 115.081 31.3992C114.817 31.4649 114.653 31.6952 114.653 31.9583V36.431C114.653 36.7928 114.916 37.0559 115.212 37.0559H118.863V47.843C118.863 55.8677 124.454 56.6899 128.269 56.6899C130.012 56.6899 132.116 56.1308 132.445 55.9663C132.643 55.9005 132.741 55.6703 132.741 55.4401V50.5069C132.746 50.367 132.7 50.2302 132.612 50.1214C132.523 50.0127 132.399 49.9394 132.261 49.915V49.9183ZM210.192 42.6797C210.192 36.727 207.791 35.9377 205.259 36.2008C203.286 36.3323 201.707 37.319 201.707 37.319V48.8954C201.707 48.8954 203.318 50.0136 205.719 50.0794C209.107 50.1781 210.192 48.9612 210.192 42.6797ZM218.184 42.1535C218.184 53.434 214.533 56.657 208.153 56.657C202.759 56.657 199.865 53.9273 199.865 53.9273C199.865 53.9273 199.734 55.4401 199.569 55.6374C199.471 55.8348 199.306 55.9005 199.109 55.9005H194.241C193.913 55.9005 193.617 55.6374 193.617 55.3414L193.682 18.8032C193.682 18.5072 193.945 18.2441 194.241 18.2441H201.246C201.542 18.2441 201.806 18.5072 201.806 18.8032V31.2018C201.806 31.2018 204.502 29.4588 208.449 29.4588L208.416 29.393C212.363 29.393 218.184 30.873 218.184 42.1535ZM189.506 30.281H182.599C182.237 30.281 182.04 30.5441 182.04 30.9058V48.7968C182.04 48.7968 180.231 50.0794 177.765 50.0794C175.298 50.0794 174.575 48.9612 174.575 46.4946V30.873C174.575 30.577 174.311 30.3139 174.015 30.3139H166.977C166.681 30.3139 166.418 30.577 166.418 30.873V47.6786C166.418 54.9139 170.464 56.7227 176.022 56.7227C180.593 56.7227 184.309 54.1904 184.309 54.1904C184.309 54.1904 184.474 55.473 184.572 55.6703C184.638 55.8348 184.868 55.9663 185.099 55.9663H189.506C189.867 55.9663 190.065 55.7032 190.065 55.4072L190.13 30.8401C190.13 30.5441 189.867 30.281 189.506 30.281ZM111.562 30.2481H104.556C104.26 30.2481 103.997 30.5441 103.997 30.9058V55.0455C103.997 55.7032 104.425 55.9334 104.984 55.9334H111.298C111.956 55.9334 112.121 55.6374 112.121 55.0455V30.8072C112.121 30.5112 111.858 30.2481 111.562 30.2481ZM108.108 19.132C105.576 19.132 103.57 21.1382 103.57 23.6705C103.57 26.2029 105.576 28.2091 108.108 28.2091C110.575 28.2091 112.581 26.2029 112.581 23.6705C112.581 21.1382 110.575 19.132 108.108 19.132ZM162.34 18.3098H155.401C155.105 18.3098 154.842 18.5729 154.842 18.8689V32.32H143.956V18.8689C143.956 18.5729 143.693 18.3098 143.397 18.3098H136.392C136.096 18.3098 135.833 18.5729 135.833 18.8689V55.4072C135.833 55.7032 136.129 55.9663 136.392 55.9663H143.397C143.693 55.9663 143.956 55.7032 143.956 55.4072V39.7855H154.842L154.776 55.4072C154.776 55.7032 155.039 55.9663 155.335 55.9663H162.34C162.636 55.9663 162.899 55.7032 162.899 55.4072V18.8689C162.899 18.5729 162.636 18.3098 162.34 18.3098ZM100.281 34.4906V53.3682C100.281 53.4997 100.248 53.73 100.084 53.7957C100.084 53.7957 95.9728 56.7227 89.1979 56.7227C81.0089 56.7227 71.307 54.1575 71.307 37.2532C71.307 20.3489 79.792 16.8628 88.0797 16.8957C95.2493 16.8957 98.1434 18.5072 98.6038 18.8032C98.7354 18.9676 98.8011 19.0991 98.8011 19.2636L97.4199 25.1176C97.4199 25.4136 97.1239 25.7754 96.7621 25.6767C95.5781 25.3149 93.8022 24.5914 89.6255 24.5914C84.791 24.5914 79.5947 25.9727 79.5947 36.8585C79.5947 47.7444 84.5279 49.027 88.0797 49.027C91.1054 49.027 92.1907 48.6652 92.1907 48.6652V41.1011H87.3562C86.9944 41.1011 86.7313 40.8379 86.7313 40.542V34.4906C86.7313 34.1946 86.9944 33.9315 87.3562 33.9315H99.6562C100.018 33.9315 100.281 34.1946 100.281 34.4906Z" fill="#1E1E1E"/>
</g>
<defs>
<clipPath id="clip0_3_875">
<rect width="218.335" height="77.6303" fill="white" transform="translate(0.833191)"/>
</clipPath>
</defs>
</svg>
