<svg width="221" height="79" viewBox="0 0 221 79" fill="none" xmlns="http://www.w3.org/2000/svg">
<g clip-path="url(#clip0_3_672)">
<path d="M159.551 23.2729H155.229V55.6285H172.761V51.6105H159.551V23.2729ZM189.45 49.954C188.361 51.0818 186.534 52.2097 184.075 52.2097C180.772 52.2097 179.437 50.5884 179.437 48.4384C179.437 45.231 181.651 43.6802 186.394 43.6802C187.272 43.6802 188.713 43.786 189.45 43.927V49.954ZM184.988 30.3573C181.475 30.3573 178.278 31.5909 175.783 33.6704L177.329 36.3491C179.086 35.327 181.264 34.2696 184.391 34.2696C187.94 34.2696 189.521 36.1024 189.521 39.1688V40.7548C188.818 40.6139 187.413 40.5081 186.499 40.5081C178.91 40.5081 175.08 43.1868 175.08 48.7556C175.08 53.7605 178.137 56.263 182.775 56.263C185.902 56.263 188.888 54.8179 189.907 52.4917L190.68 55.6638H193.737V39.0983C193.702 33.8467 191.418 30.3573 184.988 30.3573ZM207.686 52.3859C206.069 52.3859 204.629 52.1745 203.54 51.681V36.7368C205.015 35.5032 206.842 34.6221 209.161 34.6221C213.342 34.6221 214.958 37.5827 214.958 42.3761C214.994 49.1786 212.358 52.3859 207.686 52.3859ZM209.513 30.3573C205.648 30.3573 203.54 33.0008 203.54 33.0008V28.8065V23.2729H199.288V54.8531C201.396 55.7343 204.313 56.2277 207.475 56.2277C215.556 56.2277 219.456 51.0466 219.456 42.0942C219.456 35.045 215.872 30.3573 209.513 30.3573ZM112.4 26.7975C116.229 26.7975 118.724 28.0664 120.34 29.3705L122.202 26.1279C119.673 23.9074 116.229 22.709 112.61 22.709C103.405 22.709 96.9402 28.3483 96.9402 39.6975C96.9402 51.6105 103.897 56.263 111.873 56.263C115.878 56.263 119.251 55.3113 121.464 54.3949L121.359 41.6712V37.618H109.519V41.636H117.073L117.178 51.2933C116.194 51.7868 114.473 52.1745 112.154 52.1745C105.759 52.1745 101.473 48.1212 101.473 39.627C101.473 30.9918 105.9 26.7975 112.4 26.7975ZM142.897 23.2729H138.645V28.7008V47.4868C138.645 52.7384 140.929 56.2277 147.359 56.2277C148.237 56.2277 149.116 56.1572 149.959 55.981V52.1745C149.362 52.2802 148.694 52.3154 147.991 52.3154C144.443 52.3154 142.862 50.4827 142.862 47.4163V34.4811H149.959V30.9565H142.862L142.897 23.2729ZM127.894 55.6285H132.145V30.9565H127.894V55.6285ZM127.894 27.5377H132.145V23.2729H127.894V27.5377Z" fill="#1E1E1E"/>
<path d="M38.8618 74.9426L53.0563 31.1674H24.6673L38.8618 74.9426Z" fill="#1E1E1E"/>
<path d="M38.8615 74.9426L24.667 31.1674H4.81577L38.8615 74.9426Z" fill="#1E1E1E"/>
<path d="M4.81657 31.1674L0.494974 44.4551C0.10849 45.6534 0.530109 46.9928 1.54902 47.7329L38.8272 74.9074L4.81657 31.1674Z" fill="#1E1E1E"/>
<path d="M4.81577 31.1678H24.7021L16.1292 4.80398C15.7076 3.42939 13.7752 3.42939 13.3535 4.80398L4.81577 31.1678Z" fill="#1E1E1E"/>
<path d="M38.8619 74.9426L53.0564 31.1674H72.9428L38.8619 74.9426Z" fill="#1E1E1E"/>
<path d="M72.9082 31.1674L77.2298 44.4551C77.6163 45.6534 77.1947 46.9928 76.1758 47.7329L38.8976 74.9074L72.9082 31.1674Z" fill="#1E1E1E"/>
<path d="M72.9076 31.1677H53.0213L61.559 4.80385C62.0158 3.46451 63.9131 3.46451 64.3347 4.80385L72.9076 31.1677Z" fill="#1E1E1E"/>
</g>
<defs>
<clipPath id="clip0_3_672">
<rect width="219.953" height="77.6303" fill="white" transform="translate(0.354126 0.547363)"/>
</clipPath>
</defs>
</svg>
