<svg width="183" height="78" viewBox="0 0 183 78" fill="none" xmlns="http://www.w3.org/2000/svg">
<g clip-path="url(#clip0_3_814)">
<path d="M78.0146 41.6664C78.0146 50.2757 71.2796 56.6197 63.0141 56.6197C54.7487 56.6197 48.0137 50.2757 48.0137 41.6664C48.0137 32.9965 54.7487 26.7131 63.0141 26.7131C71.2796 26.7131 78.0146 32.9965 78.0146 41.6664ZM71.4481 41.6664C71.4481 36.2865 67.5446 32.6054 63.0141 32.6054C58.4837 32.6054 54.5802 36.2865 54.5802 41.6664C54.5802 46.9924 58.4837 50.7274 63.0141 50.7274C67.5446 50.7274 71.4481 46.9857 71.4481 41.6664Z" fill="#1E1E1E"/>
<path d="M110.375 41.6664C110.375 50.2757 103.64 56.6197 95.375 56.6197C87.1096 56.6197 80.3745 50.2757 80.3745 41.6664C80.3745 33.0032 87.1096 26.7131 95.375 26.7131C103.64 26.7131 110.375 32.9965 110.375 41.6664ZM103.809 41.6664C103.809 36.2865 99.9055 32.6054 95.375 32.6054C90.8445 32.6054 86.941 36.2865 86.941 41.6664C86.941 46.9924 90.8445 50.7274 95.375 50.7274C99.9055 50.7274 103.809 46.9857 103.809 41.6664Z" fill="#1E1E1E"/>
<path d="M141.388 27.6165V54.4623C141.388 65.5054 134.876 70.0156 127.176 70.0156C119.929 70.0156 115.567 65.1683 113.922 61.2041L119.639 58.8242C120.657 61.258 123.152 64.13 127.17 64.13C132.098 64.13 135.152 61.0895 135.152 55.3657V53.2151H134.923C133.453 55.0286 130.621 56.6129 127.048 56.6129C119.572 56.6129 112.722 50.1004 112.722 41.7203C112.722 33.2796 119.572 26.7131 127.048 26.7131C130.615 26.7131 133.446 28.2974 134.923 30.057H135.152V27.6233H141.388V27.6165ZM135.617 41.7203C135.617 36.455 132.105 32.6054 127.635 32.6054C123.104 32.6054 119.309 36.455 119.309 41.7203C119.309 46.9317 123.104 50.7274 127.635 50.7274C132.105 50.7274 135.617 46.9317 135.617 41.7203Z" fill="#1E1E1E"/>
<path d="M151.669 11.8812V55.7028H145.264V11.8812H151.669Z" fill="#1E1E1E"/>
<path d="M176.627 46.5881L181.724 49.9859C180.079 52.4197 176.115 56.6131 169.265 56.6131C160.771 56.6131 154.427 50.0466 154.427 41.6598C154.427 32.7674 160.825 26.7065 168.531 26.7065C176.29 26.7065 180.086 32.882 181.326 36.2192L182.007 37.9181L162.018 46.197C163.548 49.1971 165.928 50.7275 169.265 50.7275C172.609 50.7275 174.929 49.0825 176.627 46.5881ZM160.939 41.2081L174.302 35.6596C173.567 33.7922 171.355 32.491 168.753 32.491C165.416 32.491 160.771 35.4372 160.939 41.2081Z" fill="#1E1E1E"/>
<path d="M23.7702 37.7759V31.4319H45.1484C45.3574 32.5376 45.4652 33.8455 45.4652 35.2612C45.4652 40.0209 44.1641 45.9065 39.9707 50.0999C35.8919 54.3472 30.6805 56.6125 23.7769 56.6125C10.981 56.6125 0.22113 46.1897 0.22113 33.3938C0.22113 20.5979 10.981 10.1751 23.7769 10.1751C30.8558 10.1751 35.8987 12.9527 39.6875 16.573L35.211 21.0496C32.4941 18.5012 28.813 16.5191 23.7702 16.5191C14.4261 16.5191 7.11798 24.0497 7.11798 33.3938C7.11798 42.7379 14.4261 50.2685 23.7702 50.2685C29.831 50.2685 33.2828 47.8347 35.4941 45.6234C37.2875 43.8301 38.4673 41.2682 38.9325 37.7692L23.7702 37.7759Z" fill="#1E1E1E"/>
</g>
<defs>
<clipPath id="clip0_3_814">
<rect width="182.755" height="77.6303" fill="white" transform="translate(0 0.182617)"/>
</clipPath>
</defs>
</svg>
