<svg width="185" height="78" viewBox="0 0 185 78" fill="none" xmlns="http://www.w3.org/2000/svg">
<g clip-path="url(#clip0_3_886)">
<path d="M20.3756 21.1968V35.8944H6.8774V21.1968H0.468994V56.2814H6.8774V42.061H20.3756V56.2814H26.784V21.1968H20.3756Z" fill="#1E1E1E"/>
<path d="M47.2934 44.9395C47.2934 46.3456 46.7348 47.6941 45.7405 48.6883C44.7463 49.6826 43.3978 50.2411 41.9917 50.2411C40.5857 50.2411 39.2372 49.6826 38.2429 48.6883C37.2487 47.6941 36.6901 46.3456 36.6901 44.9395V29.9123H30.6114V44.9395C30.6114 47.9549 31.8092 50.8467 33.9414 52.9789C36.0736 55.111 38.9654 56.3089 41.9808 56.3089C44.9961 56.3089 47.8879 55.111 50.0201 52.9789C52.1523 50.8467 53.3501 47.9549 53.3501 44.9395V29.9123H47.2934V44.9395Z" fill="#1E1E1E"/>
<path d="M92.3326 31.461C92.3326 28.3808 94.3704 27.4043 96.6028 27.4043C98.4019 27.4043 100.779 28.7733 102.333 30.4343L106.314 25.7433C104.327 23.0556 100.295 21.1969 96.9953 21.1969C90.4016 21.1969 85.6322 25.0589 85.6322 31.461C85.6322 43.339 100.151 39.5712 100.151 46.2182C100.151 48.2685 98.1602 50.0802 95.8806 50.0802C92.2855 50.0802 91.1206 48.3219 89.4691 46.4631L85.0513 51.0567C87.8772 54.5262 91.3624 56.2877 95.5384 56.2877C101.802 56.2877 106.842 52.3786 106.842 46.2684C106.842 33.0811 92.3232 37.1786 92.3232 31.461" fill="#1E1E1E"/>
<path d="M182.151 50.6764C178.559 50.6764 177.539 49.1222 177.539 46.7422V36.208H183.121V30.8703H177.539V23.8276L171.375 26.5938V48.0515C171.375 53.5399 175.162 56.3061 180.355 56.3061C181.169 56.3209 181.983 56.2557 182.785 56.1114L184.289 50.5759C183.611 50.623 182.832 50.6701 182.151 50.6701" fill="#1E1E1E"/>
<path d="M70.4323 30.0894C67.4212 30.0894 65.3207 30.9623 63.2892 32.9561V21.4078H57.201V42.8121C57.201 50.8249 62.994 56.3134 69.5029 56.3134C76.7246 56.3134 83.0764 50.7276 83.0764 43.2045C83.0764 35.7757 77.2301 30.0926 70.4323 30.0926V30.0894ZM70.3946 50.1875C69.0284 50.1875 67.6929 49.7824 66.557 49.0234C65.421 48.2644 64.5356 47.1855 64.0128 45.9233C63.49 44.6611 63.3532 43.2722 63.6197 41.9323C63.8863 40.5923 64.5441 39.3615 65.5102 38.3954C66.4762 37.4294 67.7071 36.7715 69.047 36.505C70.387 36.2384 71.7759 36.3752 73.0381 36.8981C74.3003 37.4209 75.3791 38.3063 76.1381 39.4422C76.8972 40.5782 77.3023 41.9137 77.3023 43.2799C77.3023 45.1119 76.5745 46.8689 75.2791 48.1643C73.9836 49.4598 72.2267 50.1875 70.3946 50.1875Z" fill="#1E1E1E"/>
<path d="M136.538 42.8829C136.538 35.3473 130.199 29.7741 122.965 29.7741C116.456 29.7741 110.663 35.2625 110.663 43.2754V64.6922H116.751V53.1282C118.779 55.1189 120.883 55.9949 123.891 55.9949C130.689 55.9949 136.535 50.3149 136.535 42.8829H136.538ZM130.773 42.8075C130.773 44.1738 130.368 45.5093 129.609 46.6452C128.85 47.7812 127.771 48.6666 126.509 49.1894C125.247 49.7122 123.858 49.849 122.518 49.5825C121.178 49.3159 119.947 48.658 118.981 47.692C118.015 46.7259 117.357 45.4951 117.091 44.1552C116.824 42.8152 116.961 41.4263 117.484 40.1641C118.007 38.9019 118.892 37.8231 120.028 37.0641C121.164 36.305 122.5 35.8999 123.866 35.8999C125.698 35.8999 127.455 36.6277 128.75 37.9231C130.046 39.2185 130.773 40.9755 130.773 42.8075Z" fill="#1E1E1E"/>
<path d="M156.145 29.6766V23.623C156.945 23.2494 157.622 22.6561 158.098 21.9123C158.574 21.1685 158.829 20.3049 158.833 19.4219V19.2806C158.829 18.0467 158.338 16.8643 157.465 15.9917C156.593 15.1192 155.41 14.6276 154.176 14.6242H154.035C152.801 14.6276 151.619 15.1192 150.746 15.9917C149.874 16.8643 149.382 18.0467 149.379 19.2806V19.4219C149.383 20.3049 149.637 21.1685 150.113 21.9123C150.589 22.6561 151.266 23.2494 152.066 23.623V29.6766C149.766 30.0283 147.6 30.9815 145.787 32.4397L129.164 19.5067C129.283 19.0801 129.346 18.6401 129.353 18.1974C129.354 17.1584 129.047 16.1425 128.471 15.2779C127.895 14.4134 127.075 13.7392 126.116 13.3404C125.156 12.9417 124.1 12.8364 123.081 13.0379C122.062 13.2393 121.125 13.7385 120.39 14.4723C119.654 15.206 119.153 16.1414 118.949 17.1601C118.745 18.1789 118.848 19.2352 119.244 20.1955C119.641 21.1558 120.313 21.977 121.176 22.5553C122.039 23.1335 123.055 23.4428 124.094 23.444C125.006 23.4406 125.902 23.197 126.69 22.7376L143.033 35.4602C141.561 37.681 140.793 40.2941 140.829 42.9582C140.866 45.6223 141.705 48.2135 143.237 50.3933L138.264 55.3668C137.864 55.2397 137.449 55.1719 137.03 55.1658C136.176 55.1658 135.341 55.419 134.631 55.8934C133.921 56.3678 133.368 57.0421 133.041 57.8309C132.714 58.6198 132.629 59.4879 132.795 60.3253C132.962 61.1628 133.373 61.9321 133.977 62.5359C134.581 63.1396 135.35 63.5508 136.187 63.7174C137.025 63.884 137.893 63.7985 138.682 63.4717C139.471 63.145 140.145 62.5916 140.619 61.8816C141.094 61.1717 141.347 60.337 141.347 59.4831C141.341 59.0641 141.273 58.6483 141.146 58.2491L146.066 53.329C147.672 54.5558 149.537 55.3994 151.519 55.7954C153.501 56.1914 155.547 56.1294 157.501 55.614C159.455 55.0987 161.266 54.1437 162.795 52.8219C164.324 51.5 165.53 49.8464 166.323 47.9872C167.115 46.1279 167.472 44.1123 167.366 42.094C167.261 40.0758 166.695 38.1083 165.714 36.3419C164.732 34.5754 163.359 33.0566 161.701 31.9015C160.043 30.7463 158.142 29.9853 156.145 29.6766ZM154.107 49.5895C152.761 49.5895 151.445 49.1902 150.325 48.4422C149.206 47.6943 148.333 46.6311 147.818 45.3873C147.303 44.1434 147.168 42.7747 147.431 41.4543C147.693 40.1338 148.342 38.9209 149.294 37.9689C150.246 37.0169 151.459 36.3686 152.779 36.1059C154.1 35.8433 155.468 35.9781 156.712 36.4933C157.956 37.0085 159.019 37.881 159.767 39.0004C160.515 40.1199 160.914 41.436 160.914 42.7823C160.914 44.5877 160.197 46.3191 158.921 47.5957C157.644 48.8723 155.913 49.5895 154.107 49.5895Z" fill="#1E1E1E"/>
</g>
<defs>
<clipPath id="clip0_3_886">
<rect width="184.372" height="77.6303" fill="white" transform="translate(0.468994)"/>
</clipPath>
</defs>
</svg>
