<svg width="210" height="79" viewBox="0 0 210 79" fill="none" xmlns="http://www.w3.org/2000/svg">
<g clip-path="url(#clip0_3_567)">
<path d="M73.2239 56.7886V33.2487H73.6433L90.778 56.7886H96.1701V22.22H90.1789V45.7006H89.7595L72.6248 22.22H67.2328V56.7886H73.2239ZM113.125 57.3223C121.033 57.3223 125.886 52.2229 125.886 43.6845C125.886 35.2055 121.033 30.0468 113.125 30.0468C105.277 30.0468 100.364 35.2055 100.364 43.6845C100.424 52.2229 105.217 57.3223 113.125 57.3223ZM113.125 52.3415C108.931 52.3415 106.535 49.1989 106.535 43.6845C106.535 38.2295 108.931 35.0276 113.125 35.0276C117.319 35.0276 119.715 38.2295 119.715 43.6845C119.715 49.1989 117.319 52.3415 113.125 52.3415ZM131.338 24.1767V30.7584H127.144V35.5019H131.338V49.7919C131.338 54.8912 133.735 56.9072 139.846 56.9072C140.984 56.9072 142.122 56.7886 143.021 56.6107V51.9858C142.302 52.0451 141.823 52.1043 140.984 52.1043C138.468 52.1043 137.329 50.9778 137.329 48.3688V35.5019H143.021V30.7584H137.329V24.1767H131.338ZM146.616 56.7886H152.607V30.5805H146.616V56.7886ZM149.611 26.252C151.588 26.252 153.206 24.6511 153.206 22.6943C153.206 20.6783 151.588 19.0774 149.611 19.0774C147.634 19.0774 146.017 20.6783 146.017 22.6943C146.017 24.6511 147.634 26.252 149.611 26.252ZM169.023 57.3223C176.931 57.3223 181.784 52.2229 181.784 43.6845C181.784 35.2055 176.931 30.0468 169.023 30.0468C161.174 30.0468 156.261 35.2055 156.261 43.6845C156.261 52.2229 161.054 57.3223 169.023 57.3223ZM169.023 52.3415C164.829 52.3415 162.432 49.1989 162.432 43.6845C162.432 38.2295 164.829 35.0276 169.023 35.0276C173.157 35.0276 175.613 38.2295 175.613 43.6845C175.553 49.1989 173.157 52.3415 169.023 52.3415ZM185.319 56.7886H191.31V41.5499C191.31 37.6958 193.586 35.2648 197.121 35.2648C200.776 35.2648 202.453 37.2808 202.453 41.2535V56.7886H208.445V39.8304C208.445 33.5452 205.209 30.0468 199.338 30.0468C195.384 30.0468 192.748 31.8257 191.49 34.7904H191.07V30.5805H185.259C185.319 30.5805 185.319 56.7886 185.319 56.7886Z" fill="#1E1E1E"/>
<path fill-rule="evenodd" clip-rule="evenodd" d="M9.7877 20.0074C11.5314 21.4142 12.1621 21.3031 15.427 21.081L46.1836 19.23C46.8514 19.23 46.2949 18.5637 46.0723 18.4897L40.9524 14.8248C39.9877 14.0844 38.6521 13.1959 36.1664 13.418L6.41153 15.6022C5.3356 15.7132 5.113 16.2685 5.55821 16.6757L9.7877 20.0074ZM11.6427 27.1521V59.4327C11.6427 61.1726 12.4961 61.802 14.4624 61.6909L48.2612 59.7289C50.2276 59.6178 50.4502 58.4332 50.4502 57.0265V24.968C50.4502 23.5613 49.8936 22.7839 48.7064 22.8949L13.3865 24.968C12.0879 25.0791 11.6427 25.7454 11.6427 27.1521ZM44.9963 28.892C45.219 29.8545 44.9964 30.854 44.0317 30.9651L42.3993 31.2983V55.1385C40.9895 55.8789 39.6909 56.3231 38.5779 56.3231C36.8342 56.3231 36.389 55.7679 35.0904 54.139L24.4425 37.4434V53.5837L27.8187 54.3241C27.8187 54.3241 27.8187 56.2861 25.1103 56.2861L17.616 56.7304C17.3934 56.2861 17.616 55.2126 18.358 54.9905L20.3243 54.4352V33.1122L17.616 32.8901C17.3934 31.9276 17.9499 30.5209 19.471 30.4098L27.5219 29.8545L38.615 46.7352V31.8165L35.7954 31.4834C35.5727 30.2987 36.4632 29.4103 37.5391 29.2992L44.9963 28.892ZM3.92577 12.6406L34.9049 10.3825C38.6892 10.0493 39.6909 10.2714 42.0654 12.0113L51.9342 18.9339C53.5666 20.1185 54.1231 20.4517 54.1231 21.7473V59.7659C54.1231 62.1351 53.2698 63.5419 50.2276 63.764L14.2769 65.9481C11.9766 66.0592 10.9007 65.726 9.7135 64.2082L2.40464 54.7683C1.10611 53.0284 0.549599 51.7328 0.549599 50.215V16.4166C0.549599 14.4546 1.44002 12.8628 3.92577 12.6406Z" fill="#1E1E1E"/>
</g>
<defs>
<clipPath id="clip0_3_567">
<rect width="208.631" height="77.6303" fill="white" transform="translate(0.549622 0.547363)"/>
</clipPath>
</defs>
</svg>
