<svg width="173" height="78" viewBox="0 0 173 78" fill="none" xmlns="http://www.w3.org/2000/svg">
<g clip-path="url(#clip0_3_698)">
<path d="M11.0102 32.8857C18.7245 30.2267 20.0376 23.3002 19.0528 16.9318C19.0528 16.702 19.2497 16.5379 19.4467 16.6035C26.8328 20.2145 35.138 28.093 35.138 39.9107C35.138 48.9709 28.113 56.9807 17.9038 56.9807C14.2609 57.1463 10.6665 56.0941 7.68805 53.99C4.70957 51.886 2.5166 48.8499 1.45527 45.3611C0.393941 41.8723 0.524694 38.1293 1.82689 34.7231C3.12909 31.3168 5.52858 28.4412 8.64662 26.5501C8.84358 26.4188 9.1062 26.5501 9.1062 26.7799C9.20468 27.9945 9.53295 31.0474 10.8789 32.8857H11.0102Z" fill="#1E1E1E"/>
<path d="M56.8702 49.7916L57.4283 49.1351L59.1681 54.65L58.9383 54.8798C57.6252 56.0944 55.6556 56.7181 53.128 56.7181H53.0295C50.7316 56.7181 48.9261 56.0615 47.6787 54.847C46.4313 53.5995 45.7747 51.7284 45.7747 49.3648V34.3301H41.3431V28.2571H45.7747V20.9367H52.6027V28.2571H58.0192V34.3301H52.5699V47.8876C52.5699 48.5113 52.734 50.5138 54.638 50.5138C55.6228 50.5138 56.542 50.1527 56.8702 49.7588V49.7916ZM60.4812 56.0944V28.2899H67.3092V56.0944H60.4812ZM63.8624 16.9318C64.6725 16.9318 65.4646 17.1717 66.1386 17.6211C66.8127 18.0706 67.3386 18.7095 67.6501 19.4574C67.9617 20.2053 68.0448 21.0286 67.8891 21.8237C67.7334 22.6188 67.3459 23.35 66.7753 23.9251C66.2047 24.5003 65.4766 24.8936 64.6828 25.0556C63.889 25.2177 63.065 25.1411 62.3147 24.8355C61.5643 24.53 60.9213 24.0092 60.4664 23.3387C60.0116 22.6682 59.7655 21.8781 59.759 21.068C59.759 18.8358 61.6301 16.9318 63.8624 16.9318ZM85.6595 27.6006C91.5683 27.6006 94.8182 30.8176 94.8182 36.6936V56.0615H87.9902V38.335C87.8589 35.1836 86.3488 33.7392 83.1318 33.7392C80.243 33.7392 77.9123 35.5119 76.7305 37.0219V56.0615H69.9025V28.3228H76.7305V31.2772C78.7001 29.3732 81.8515 27.6662 85.6595 27.6662V27.6006ZM117.534 31.1787V18.1136H124.362V56.1272H117.534V53.2384C116.49 54.3404 115.233 55.2197 113.839 55.8233C112.446 56.4269 110.945 56.7425 109.426 56.7509C101.974 56.7509 96.9848 50.9077 96.9848 42.2086C96.9848 33.4766 101.974 27.6334 109.426 27.6334C110.948 27.6403 112.452 27.9584 113.847 28.5681C115.241 29.1778 116.496 30.0662 117.534 31.1787ZM117.534 37.0547C116.773 36.0636 115.801 35.2547 114.688 34.6868C113.575 34.119 112.349 33.8065 111.1 33.772C106.866 33.772 104.043 37.1532 104.043 42.2086C104.043 47.2311 106.866 50.6123 111.1 50.6123C113.562 50.6123 116.254 49.2992 117.534 47.3952V37.0547ZM140.316 27.6334C148.392 27.6334 154.005 33.8705 154.005 42.7338V44.6049H133.357C134.046 48.5113 137.132 51.0062 141.334 51.0062C143.993 51.0062 146.915 49.8572 148.589 48.1831L149.048 47.7892L152.298 52.4506L151.97 52.746C148.894 55.4733 144.884 56.908 140.776 56.7509C132.241 56.7509 126.234 50.7436 126.234 42.1757C126.167 40.2841 126.484 38.3986 127.164 36.6323C127.845 34.8661 128.875 33.2555 130.193 31.8974C131.512 30.5392 133.091 29.4614 134.836 28.7286C136.581 27.9959 138.456 27.6234 140.349 27.6334H140.316ZM133.324 39.4511H147.341C146.947 35.2821 143.501 33.3781 140.316 33.3781C135.524 33.3781 133.718 36.9891 133.324 39.4839V39.4511ZM170.517 27.6334H171.01V34.5271L170.419 34.4286C169.926 34.3301 169.303 34.2644 168.679 34.2644C166.479 34.2644 163.427 35.8073 162.278 37.4487V56.0615H155.45V28.2899H162.31V31.3757C164.575 29.0121 167.563 27.6334 170.517 27.6334Z" fill="#1E1E1E"/>
</g>
<defs>
<clipPath id="clip0_3_698">
<rect width="171.434" height="77.6303" fill="white" transform="translate(0.744629 0.364746)"/>
</clipPath>
</defs>
</svg>
